
        <svg xmlns="http://www.w3.org/2000/svg" xmlns:xlink="http://www.w3.org/1999/xlink" version="1.1" width="3352.9411764705883" 
        height="720.7008069341941" viewBox="0 0 3352.9411764705883 720.7008069341941">
			
			<g transform="scale(17.647058823529413) translate(10, 10)">
				<defs id="SvgjsDefs1011"></defs><g id="SvgjsG1012" featureKey="2ou6gm-0" transform="matrix(0.25013757165677497,0,0,0.25013757165677497,-2.5271398082040704,-1.730952014948865)" fill="#364f6b"><path xmlns="http://www.w3.org/2000/svg" fill="none" stroke="#364f6b" stroke-width="9" stroke-linecap="round" stroke-miterlimit="10" d="M10.103,6.92  c0,0,4.754,0.794,4.754,7.738s0,29.562,0,32.935s0.991,3.968,3.571,3.968s32.538,0,32.538,0s24.404,0,28.372,0  s4.166,2.976,4.166,2.976s-0.198,23.015,0,29.363s5.556,6.333,5.556,6.333"></path><path xmlns="http://www.w3.org/2000/svg" fill="none" stroke="#364f6b" stroke-width="9" stroke-linecap="round" stroke-miterlimit="10" d="M90.059,8.69  c0,0-1.198,5.174-5.762,5.174s-26.982,0-30.554,0s-4.724,1.395-4.663,5.357S50.027,74.178,50,78.939  c-0.027,4.762-1.416,4.96-4.789,4.96s-11.706,0.198-23.808,0c-9.92-0.396-10.515,4.746-10.515,4.746"></path><path xmlns="http://www.w3.org/2000/svg" fill="none" stroke="#364f6b" stroke-width="18" stroke-linecap="round" stroke-miterlimit="10" d="M31.522,29.736"></path><circle xmlns="http://www.w3.org/2000/svg" stroke="#364f6b" stroke-miterlimit="10" cx="31.958" cy="31.602" r="5"></circle><circle xmlns="http://www.w3.org/2000/svg" stroke="#364f6b" stroke-miterlimit="10" cx="30.958" cy="68.116" r="5"></circle><circle xmlns="http://www.w3.org/2000/svg" stroke="#364f6b" stroke-miterlimit="10" cx="68.654" cy="31.602" r="5"></circle><circle xmlns="http://www.w3.org/2000/svg" stroke="#364f6b" stroke-miterlimit="10" cx="68.654" cy="68.504" r="5"></circle></g><g id="SvgjsG1013" featureKey="kZnDdN-0" transform="matrix(0.4263133697094375,0,0,0.4263133697094375,39.70158051923416,5.544434892898254)" fill="#364f6b"><path d="M5.5 5.76 c2.18 0 3.78 1.44 4.38 2.94 l-1.26 0.68 c-0.64 -1.28 -1.66 -2.12 -3.12 -2.12 c-1.54 0 -2.6 0.88 -2.6 2.1 c0 1.14 0.72 1.86 2.24 2.44 l1.02 0.38 c2.52 0.94 4.1 2.02 4.1 4.24 c0 2.4 -2.3 3.88 -4.68 3.88 s-4.34 -1.44 -4.88 -3.44 l1.34 -0.64 c0.48 1.48 1.74 2.56 3.54 2.56 c1.6 0 2.96 -0.92 2.96 -2.34 c0 -1.6 -1.12 -2.2 -2.78 -2.84 l-1.04 -0.4 c-2.12 -0.8 -3.48 -1.9 -3.48 -3.88 c0 -2.04 1.8 -3.56 4.26 -3.56 z M13.82 6 l0 14 l-1.66 0 l0 -14 l1.66 0 z M20.380000000000003 6 c4.08 0 7.08 3.1 7.08 7 s-3 7 -7.08 7 l-4.16 0 l0 -14 l4.16 0 z M20.36 18.42 c3.34 0 5.4 -2.42 5.4 -5.42 s-2.06 -5.42 -5.4 -5.42 l-2.48 0 l0 10.84 l2.48 0 z M33.620000000000005 6 c4.08 0 7.08 3.1 7.08 7 s-3 7 -7.08 7 l-4.16 0 l0 -14 l4.16 0 z M33.6 18.42 c3.34 0 5.4 -2.42 5.4 -5.42 s-2.06 -5.42 -5.4 -5.42 l-2.48 0 l0 10.84 l2.48 0 z M51.480000000000004 6 l1.66 0 l0 14 l-1.66 0 l0 -6.12 l-7.12 0 l0 6.12 l-1.66 0 l0 -14 l1.66 0 l0 6.32 l7.12 0 l0 -6.32 z M60.1 6 c3.14 0 4.96 1.92 4.96 4.52 s-1.82 4.44 -4.96 4.44 l-2.9 0 l0 5.04 l-1.66 0 l0 -14 l4.56 0 z M60.06 13.48 c2.02 0 3.34 -1.04 3.34 -2.96 c0 -1.94 -1.32 -2.96 -3.34 -2.96 l-2.86 0 l0 5.92 l2.86 0 z M75.46000000000001 6 l1.66 0 l0 8.92 c0 3.44 -2.24 5.38 -5.08 5.38 s-5.08 -1.94 -5.08 -5.38 l0 -8.92 l1.66 0 l0 8.92 c0 2.62 1.56 3.8 3.42 3.8 s3.42 -1.18 3.42 -3.8 l0 -8.92 z M89.80000000000001 20 l-1.8 0 l-3.54 -5.04 l-0.38 0 l-2.9 0 l0 5.04 l-1.66 0 l0 -14 l4.56 0 c3.14 0 4.96 1.92 4.96 4.52 c0 2 -1.08 3.56 -3 4.16 z M81.18 7.5600000000000005 l0 5.92 l2.86 0 c2.02 0 3.34 -1.04 3.34 -2.96 c0 -1.94 -1.32 -2.96 -3.34 -2.96 l-2.86 0 z M112.18 6 l0 14 l-1.7 0 l0 -10.28 l-4.92 10.28 l-1.36 0 l-4.9 -10.26 l0 10.26 l-1.7 0 l0 -14 l1.64 0 l5.66 11.72 l5.64 -11.72 l1.64 0 z M125.9 20 l-1.44 -3.3 l-7.48 0 l-1.44 3.3 l-1.76 0 l6.24 -14 l1.38 0 l6.26 14 l-1.76 0 z M117.60000000000001 15.3 l6.24 0 l-3.12 -7.12 z M138.3 6 l0 1.56 l-3.88 0 l0 12.44 l-1.66 0 l0 -12.44 l-3.9 0 l0 -1.56 l9.44 0 z M150.57999999999998 20 l-1.8 0 l-3.54 -5.04 l-0.38 0 l-2.9 0 l0 5.04 l-1.66 0 l0 -14 l4.56 0 c3.14 0 4.96 1.92 4.96 4.52 c0 2 -1.08 3.56 -3 4.16 z M141.96 7.5600000000000005 l0 5.92 l2.86 0 c2.02 0 3.34 -1.04 3.34 -2.96 c0 -1.94 -1.32 -2.96 -3.34 -2.96 l-2.86 0 z M160.88 6 l1.66 0 l0 8.92 c0 3.44 -2.24 5.38 -5.08 5.38 s-5.08 -1.94 -5.08 -5.38 l0 -8.92 l1.66 0 l0 8.92 c0 2.62 1.56 3.8 3.42 3.8 s3.42 -1.18 3.42 -3.8 l0 -8.92 z M178.20000000000002 12.96 c0.3 4.48 -2.76 7.24 -6.4 7.24 c-3.74 0 -7.16 -2.96 -7.16 -7.2 s3.5 -7.2 7.16 -7.2 c1.76 0 3.36 0.6 4.62 1.66 l-1.02 1.16 c-0.98 -0.78 -2.24 -1.24 -3.5 -1.24 c-2.86 0 -5.54 2.32 -5.54 5.62 s2.6 5.62 5.44 5.62 c2.48 0 4.46 -1.34 4.84 -4.22 l-4.08 0 l0 -1.44 l5.64 0 z M191.36 20 l-1.44 -3.3 l-7.48 0 l-1.44 3.3 l-1.76 0 l6.24 -14 l1.38 0 l6.26 14 l-1.76 0 z M183.06 15.3 l6.24 0 l-3.12 -7.12 z M206.22 6 l-5.22 7.54 l0 6.46 l-1.66 0 l0 -6.46 l-5.22 -7.54 l1.9 0 l4.14 6.02 l4.16 -6.02 l1.9 0 z M218.16000000000003 20 l-1.44 -3.3 l-7.48 0 l-1.44 3.3 l-1.76 0 l6.24 -14 l1.38 0 l6.26 14 l-1.76 0 z M209.86 15.3 l6.24 0 l-3.12 -7.12 z M232.08 6 c3.14 0 4.96 1.92 4.96 4.52 s-1.82 4.44 -4.96 4.44 l-2.9 0 l0 5.04 l-1.66 0 l0 -14 l4.56 0 z M232.04000000000002 13.48 c2.02 0 3.34 -1.04 3.34 -2.96 c0 -1.94 -1.32 -2.96 -3.34 -2.96 l-2.86 0 l0 5.92 l2.86 0 z M247.44 6 l1.66 0 l0 8.92 c0 3.44 -2.24 5.38 -5.08 5.38 s-5.08 -1.94 -5.08 -5.38 l0 -8.92 l1.66 0 l0 8.92 c0 2.62 1.56 3.8 3.42 3.8 s3.42 -1.18 3.42 -3.8 l0 -8.92 z M261.78000000000003 20 l-1.8 0 l-3.54 -5.04 l-0.38 0 l-2.9 0 l0 5.04 l-1.66 0 l0 -14 l4.56 0 c3.14 0 4.96 1.92 4.96 4.52 c0 2 -1.08 3.56 -3 4.16 z M253.16000000000003 7.5600000000000005 l0 5.92 l2.86 0 c2.02 0 3.34 -1.04 3.34 -2.96 c0 -1.94 -1.32 -2.96 -3.34 -2.96 l-2.86 0 z M270.44 5.800000000000001 c3.64 0 7.16 2.96 7.16 7.2 s-3.52 7.2 -7.16 7.2 c-3.66 0 -7.16 -2.96 -7.16 -7.2 s3.5 -7.2 7.16 -7.2 z M270.44 18.62 c2.74 0 5.44 -2.32 5.44 -5.62 s-2.7 -5.62 -5.44 -5.62 c-2.76 0 -5.44 2.32 -5.44 5.62 s2.68 5.62 5.44 5.62 z M288.48 6 l1.66 0 l0 14 l-1.66 0 l0 -6.12 l-7.12 0 l0 6.12 l-1.66 0 l0 -14 l1.66 0 l0 6.32 l7.12 0 l0 -6.32 z M294.2 6 l0 14 l-1.66 0 l0 -14 l1.66 0 z M305.64 6 l0 1.56 l-3.88 0 l0 12.44 l-1.66 0 l0 -12.44 l-3.9 0 l0 -1.56 l9.44 0 z"></path></g>
			</g>
		</svg>
	